<?xml version="1.0" standalone="no"?>
<!DOCTYPE svg PUBLIC "-//W3C//DTD SVG 20010904//EN"
 "http://www.w3.org/TR/2001/REC-SVG-20010904/DTD/svg10.dtd">
<svg version="1.0" xmlns="http://www.w3.org/2000/svg"
 width="612.000000pt" height="612.000000pt" viewBox="0 0 612.000000 612.000000"
 preserveAspectRatio="xMidYMid meet">
<metadata>
Created by potrace 1.14, written by Peter Selinger 2001-2017
</metadata>
<g transform="translate(0.000000,612.000000) scale(0.100000,-0.100000)"
fill="#000000" stroke="none">
<path d="M3640 5331 c-87 -27 -165 -95 -204 -180 -21 -46 -21 -47 -26 -1241
l-5 -1195 -29 -60 c-122 -248 -448 -294 -634 -90 -29 31 -52 61 -52 66 0 20
-16 7 -43 -36 -35 -54 -87 -97 -164 -133 -50 -23 -70 -27 -153 -27 -85 0 -102
3 -160 31 -79 37 -150 107 -188 183 l-27 56 -5 960 -5 960 -24 53 c-30 66
-113 144 -177 166 -154 52 -321 -18 -388 -163 -21 -46 -21 -47 -21 -1266 0
-1372 -3 -1308 76 -1549 67 -203 164 -378 303 -543 236 -281 575 -477 951
-550 128 -24 423 -24 560 1 286 52 567 187 785 378 151 132 130 104 977 1288
364 508 370 518 361 634 -17 210 -240 340 -432 253 -50 -23 -112 -81 -444
-412 -328 -328 -390 -385 -412 -383 l-25 3 -5 1285 -5 1285 -24 53 c-60 132
-229 213 -361 173z"/>
<path d="M2934 4076 c-58 -18 -128 -71 -159 -118 -55 -84 -55 -78 -55 -653 0
-605 -1 -599 77 -685 153 -171 418 -128 513 81 19 42 20 68 20 599 l0 555 -28
60 c-31 65 -78 112 -144 146 -52 26 -166 34 -224 15z"/>
<path d="M2259 3937 c-102 -29 -166 -84 -211 -183 -23 -49 -23 -50 -23 -529
l0 -480 24 -52 c13 -30 45 -73 75 -101 67 -64 132 -86 230 -80 116 8 197 61
248 166 l33 67 3 471 c3 456 2 473 -18 527 -55 146 -218 234 -361 194z"/>
</g>
</svg>
